<mxfile host="Electron" modified="2023-12-31T07:33:12.559Z" agent="Mozilla/5.0 (Macintosh; Intel Mac OS X 10_15_7) AppleWebKit/537.36 (KHTML, like Gecko) draw.io/22.1.16 Chrome/120.0.6099.109 Electron/28.1.0 Safari/537.36" etag="TdB9grvtVe93VpPKZxeF" version="22.1.16" type="device">
  <diagram name="Page-1" id="udvso_-TeXQ471GxqDBE">
    <mxGraphModel dx="954" dy="727" grid="1" gridSize="10" guides="1" tooltips="1" connect="1" arrows="1" fold="1" page="1" pageScale="1" pageWidth="827" pageHeight="1169" math="0" shadow="0">
      <root>
        <mxCell id="0" />
        <mxCell id="1" parent="0" />
        <mxCell id="ndoNzFzWmUu_PWySdX6u-9" value="" style="sketch=0;points=[[0.015,0.015,0],[0.985,0.015,0],[0.985,0.985,0],[0.015,0.985,0],[0.25,0,0],[0.5,0,0],[0.75,0,0],[1,0.25,0],[1,0.5,0],[1,0.75,0],[0.75,1,0],[0.5,1,0],[0.25,1,0],[0,0.75,0],[0,0.5,0],[0,0.25,0]];verticalLabelPosition=bottom;html=1;verticalAlign=top;aspect=fixed;align=center;pointerEvents=1;shape=mxgraph.cisco19.dns_server;fillColor=#005073;strokeColor=none;" parent="1" vertex="1">
          <mxGeometry x="1490" y="91.8" width="68.75" height="125" as="geometry" />
        </mxCell>
        <mxCell id="ndoNzFzWmUu_PWySdX6u-11" value="" style="sketch=0;pointerEvents=1;shadow=0;dashed=0;html=1;strokeColor=none;fillColor=#434445;aspect=fixed;labelPosition=center;verticalLabelPosition=bottom;verticalAlign=top;align=center;outlineConnect=0;shape=mxgraph.vvd.web_browser;" parent="1" vertex="1">
          <mxGeometry x="1099.51" y="100" width="164.49" height="116.8" as="geometry" />
        </mxCell>
        <mxCell id="ndoNzFzWmUu_PWySdX6u-22" value="" style="points=[[0.35,0,0],[0.98,0.51,0],[1,0.71,0],[0.67,1,0],[0,0.795,0],[0,0.65,0]];verticalLabelPosition=bottom;sketch=0;html=1;verticalAlign=top;aspect=fixed;align=center;pointerEvents=1;shape=mxgraph.cisco19.user;fillColor=#005073;strokeColor=none;" parent="1" vertex="1">
          <mxGeometry x="740.62" y="100" width="130" height="130" as="geometry" />
        </mxCell>
        <mxCell id="ndoNzFzWmUu_PWySdX6u-53" value="" style="html=1;shadow=1;dashed=0;align=center;verticalAlign=middle;shape=mxgraph.arrows2.arrow;dy=0.6;dx=40;notch=0;" parent="1" vertex="1">
          <mxGeometry x="1270" y="100" width="210" height="65" as="geometry" />
        </mxCell>
        <mxCell id="ndoNzFzWmUu_PWySdX6u-54" value="" style="html=1;shadow=1;dashed=0;align=center;verticalAlign=middle;shape=mxgraph.arrows2.arrow;dy=0.6;dx=40;notch=0;rotation=-180;" parent="1" vertex="1">
          <mxGeometry x="1270" y="151.8" width="210" height="65" as="geometry" />
        </mxCell>
        <mxCell id="ndoNzFzWmUu_PWySdX6u-55" value="&lt;b&gt;&lt;font style=&quot;font-size: 18px;&quot;&gt;www.foobar.com&lt;/font&gt;&lt;/b&gt;" style="text;strokeColor=none;align=center;fillColor=none;html=1;verticalAlign=middle;whiteSpace=wrap;rounded=0;shadow=1;" parent="1" vertex="1">
          <mxGeometry x="1290.8700000000001" y="107.5" width="120" height="50" as="geometry" />
        </mxCell>
        <mxCell id="ndoNzFzWmUu_PWySdX6u-56" value="&lt;font style=&quot;font-size: 18px;&quot;&gt;&lt;b&gt;8.8.8.8&lt;/b&gt;&lt;/font&gt;" style="text;strokeColor=none;align=center;fillColor=none;html=1;verticalAlign=middle;whiteSpace=wrap;rounded=0;" parent="1" vertex="1">
          <mxGeometry x="1420" y="170" width="60" height="30" as="geometry" />
        </mxCell>
        <mxCell id="ndoNzFzWmUu_PWySdX6u-57" value="" style="html=1;shadow=1;dashed=0;align=center;verticalAlign=middle;shape=mxgraph.arrows2.arrow;dy=0.55;dx=35.14;notch=0;rotation=90;" parent="1" vertex="1">
          <mxGeometry x="1136" y="294.7" width="194" height="59.37" as="geometry" />
        </mxCell>
        <mxCell id="ndoNzFzWmUu_PWySdX6u-58" value="&lt;font style=&quot;font-size: 18px;&quot;&gt;&lt;b&gt;HTTPS Request&lt;/b&gt;&lt;/font&gt;" style="text;strokeColor=none;align=center;fillColor=none;html=1;verticalAlign=middle;whiteSpace=wrap;rounded=0;rotation=90;" parent="1" vertex="1">
          <mxGeometry x="1160.5100000000002" y="278.26000000000005" width="144.98" height="42.97" as="geometry" />
        </mxCell>
        <mxCell id="ndoNzFzWmUu_PWySdX6u-59" value="" style="html=1;shadow=1;dashed=0;align=center;verticalAlign=middle;shape=mxgraph.arrows2.arrow;dy=0.55;dx=35.14;notch=0;rotation=-90;" parent="1" vertex="1">
          <mxGeometry x="1045.39" y="294.7" width="195" height="57.04" as="geometry" />
        </mxCell>
        <mxCell id="ndoNzFzWmUu_PWySdX6u-60" value="&lt;font style=&quot;font-size: 18px;&quot;&gt;&lt;b&gt;HTTPS Response&lt;/b&gt;&lt;/font&gt;" style="text;strokeColor=none;align=center;fillColor=none;html=1;verticalAlign=middle;whiteSpace=wrap;rounded=0;rotation=-90;" parent="1" vertex="1">
          <mxGeometry x="1065.02" y="325.33" width="158.75" height="34.07" as="geometry" />
        </mxCell>
        <mxCell id="ndoNzFzWmUu_PWySdX6u-168" value="" style="html=1;shadow=1;dashed=0;align=center;verticalAlign=middle;shape=mxgraph.arrows2.arrow;dy=0.6;dx=40;notch=0;" parent="1" vertex="1">
          <mxGeometry x="880" y="125.9" width="210" height="65" as="geometry" />
        </mxCell>
        <mxCell id="ndoNzFzWmUu_PWySdX6u-169" value="&lt;b&gt;&lt;font style=&quot;font-size: 18px;&quot;&gt;www.foobar.com&lt;/font&gt;&lt;/b&gt;" style="text;strokeColor=none;align=center;fillColor=none;html=1;verticalAlign=middle;whiteSpace=wrap;rounded=0;shadow=1;" parent="1" vertex="1">
          <mxGeometry x="898.23" y="133.39999999999998" width="120" height="50" as="geometry" />
        </mxCell>
        <mxCell id="ndoNzFzWmUu_PWySdX6u-248" value="" style="shape=table;startSize=0;container=1;collapsible=0;childLayout=tableLayout;" parent="1" vertex="1">
          <mxGeometry x="946.87" y="510" width="300" height="188.5" as="geometry" />
        </mxCell>
        <mxCell id="ndoNzFzWmUu_PWySdX6u-249" value="" style="shape=tableRow;horizontal=0;startSize=0;swimlaneHead=0;swimlaneBody=0;strokeColor=inherit;top=0;left=0;bottom=0;right=0;collapsible=0;dropTarget=0;fillColor=none;points=[[0,0.5],[1,0.5]];portConstraint=eastwest;" parent="ndoNzFzWmUu_PWySdX6u-248" vertex="1">
          <mxGeometry width="300" height="189" as="geometry" />
        </mxCell>
        <mxCell id="ndoNzFzWmUu_PWySdX6u-250" value="" style="shape=partialRectangle;html=1;whiteSpace=wrap;connectable=0;strokeColor=inherit;overflow=hidden;fillColor=none;top=0;left=0;bottom=0;right=0;pointerEvents=1;" parent="ndoNzFzWmUu_PWySdX6u-249" vertex="1">
          <mxGeometry width="300" height="189" as="geometry">
            <mxRectangle width="300" height="189" as="alternateBounds" />
          </mxGeometry>
        </mxCell>
        <mxCell id="ndoNzFzWmUu_PWySdX6u-251" value="" style="outlineConnect=0;dashed=0;verticalLabelPosition=bottom;verticalAlign=top;align=center;html=1;shape=mxgraph.aws3.classic_load_balancer;fillColor=#F58536;gradientColor=none;" parent="1" vertex="1">
          <mxGeometry x="994.84" y="584.5" width="70.18" height="72.75" as="geometry" />
        </mxCell>
        <mxCell id="ndoNzFzWmUu_PWySdX6u-252" value="" style="image;html=1;image=img/lib/clip_art/computers/Server_Rack_128x128.png;noLabel=0;portConstraintRotation=0;connectable=1;allowArrows=1;fixDash=0;" parent="1" vertex="1">
          <mxGeometry x="1010" y="450" width="98.02" height="110" as="geometry" />
        </mxCell>
        <mxCell id="ndoNzFzWmUu_PWySdX6u-253" value="&lt;font style=&quot;font-size: 18px;&quot;&gt;&lt;b&gt;HAproxy&lt;br&gt;Load Balancer&lt;/b&gt;&lt;/font&gt;" style="text;strokeColor=none;align=center;fillColor=none;html=1;verticalAlign=middle;whiteSpace=wrap;rounded=0;" parent="1" vertex="1">
          <mxGeometry x="958.0199999999999" y="660" width="150" height="30" as="geometry" />
        </mxCell>
        <mxCell id="ndoNzFzWmUu_PWySdX6u-256" value="" style="html=1;shadow=0;dashed=0;align=center;verticalAlign=middle;shape=mxgraph.arrows2.bendDoubleArrow;dy=6;dx=25;arrowHead=38;rounded=1;" parent="1" vertex="1">
          <mxGeometry x="860" y="420" width="260" height="295" as="geometry" />
        </mxCell>
        <mxCell id="ndoNzFzWmUu_PWySdX6u-257" value="" style="html=1;shadow=0;dashed=0;align=center;verticalAlign=middle;shape=mxgraph.arrows2.bendDoubleArrow;dy=7.5;dx=22;arrowHead=38;rounded=1;direction=south;" parent="1" vertex="1">
          <mxGeometry x="1246.87" y="460" width="65" height="255" as="geometry" />
        </mxCell>
        <mxCell id="ndoNzFzWmUu_PWySdX6u-258" value="" style="shape=table;startSize=0;container=1;collapsible=0;childLayout=tableLayout;" parent="1" vertex="1">
          <mxGeometry x="910" y="460" width="108.23" height="40" as="geometry" />
        </mxCell>
        <mxCell id="ndoNzFzWmUu_PWySdX6u-259" value="" style="shape=tableRow;horizontal=0;startSize=0;swimlaneHead=0;swimlaneBody=0;strokeColor=inherit;top=0;left=0;bottom=0;right=0;collapsible=0;dropTarget=0;fillColor=none;points=[[0,0.5],[1,0.5]];portConstraint=eastwest;" parent="ndoNzFzWmUu_PWySdX6u-258" vertex="1">
          <mxGeometry width="108.23" height="40" as="geometry" />
        </mxCell>
        <mxCell id="ndoNzFzWmUu_PWySdX6u-260" value="" style="shape=partialRectangle;html=1;whiteSpace=wrap;connectable=0;strokeColor=inherit;overflow=hidden;fillColor=none;top=0;left=0;bottom=0;right=0;pointerEvents=1;" parent="ndoNzFzWmUu_PWySdX6u-259" vertex="1">
          <mxGeometry width="108" height="40" as="geometry">
            <mxRectangle width="108" height="40" as="alternateBounds" />
          </mxGeometry>
        </mxCell>
        <mxCell id="ndoNzFzWmUu_PWySdX6u-261" value="&lt;div style=&quot;&quot;&gt;&lt;b style=&quot;background-color: initial;&quot;&gt;&lt;font style=&quot;font-size: 18px;&quot;&gt;IP : 8.8.8.8&lt;/font&gt;&lt;/b&gt;&lt;/div&gt;&lt;div style=&quot;&quot;&gt;&lt;b style=&quot;background-color: initial;&quot;&gt;&lt;font size=&quot;3&quot; style=&quot;&quot;&gt;Server&lt;/font&gt;&lt;/b&gt;&lt;/div&gt;" style="text;strokeColor=none;align=center;fillColor=none;html=1;verticalAlign=middle;whiteSpace=wrap;rounded=0;" parent="1" vertex="1">
          <mxGeometry x="882.03" y="468.75" width="164.18" height="25" as="geometry" />
        </mxCell>
        <mxCell id="ndoNzFzWmUu_PWySdX6u-264" value="" style="fontColor=#0066CC;verticalAlign=top;verticalLabelPosition=bottom;labelPosition=center;align=center;html=1;outlineConnect=0;fillColor=#CCCCCC;strokeColor=#6881B3;gradientColor=none;gradientDirection=north;strokeWidth=2;shape=mxgraph.networks.firewall;" parent="1" vertex="1">
          <mxGeometry x="1136" y="432.75" width="106.39" height="97" as="geometry" />
        </mxCell>
        <mxCell id="ndoNzFzWmUu_PWySdX6u-271" value="" style="shape=image;html=1;verticalAlign=top;verticalLabelPosition=bottom;labelBackgroundColor=#ffffff;imageAspect=0;aspect=fixed;image=https://cdn2.iconfinder.com/data/icons/whcompare-servers-web-hosting/50/ssl-certificate-128.png;rotation=90;direction=west;" parent="1" vertex="1">
          <mxGeometry x="1154.8500000000001" y="294.7" width="64.7" height="64.7" as="geometry" />
        </mxCell>
        <mxCell id="ndoNzFzWmUu_PWySdX6u-272" value="" style="sketch=0;outlineConnect=0;fontColor=#232F3E;gradientColor=none;fillColor=#232F3D;strokeColor=none;dashed=0;verticalLabelPosition=bottom;verticalAlign=top;align=center;html=1;fontSize=12;fontStyle=0;aspect=fixed;pointerEvents=1;shape=mxgraph.aws4.ssl_padlock;" parent="1" vertex="1">
          <mxGeometry x="952.29" y="520" width="55.42" height="54" as="geometry" />
        </mxCell>
        <mxCell id="ndoNzFzWmUu_PWySdX6u-137" value="" style="shape=table;childLayout=tableLayout;startSize=0;fillColor=none;collapsible=0;recursiveResize=0;expand=0;strokeWidth=3;" parent="1" vertex="1">
          <mxGeometry x="540" y="760" width="390" height="230" as="geometry" />
        </mxCell>
        <mxCell id="ndoNzFzWmUu_PWySdX6u-138" value="" style="shape=tableRow;horizontal=0;swimlaneHead=0;swimlaneBody=0;top=0;left=0;strokeColor=inherit;bottom=0;right=0;dropTarget=0;fontStyle=0;fillColor=none;points=[[0,0.5],[1,0.5]];portConstraint=eastwest;startSize=0;collapsible=0;recursiveResize=0;expand=0;" parent="ndoNzFzWmUu_PWySdX6u-137" vertex="1">
          <mxGeometry width="390" height="230" as="geometry" />
        </mxCell>
        <mxCell id="ndoNzFzWmUu_PWySdX6u-139" value="" style="swimlane;swimlaneHead=0;swimlaneBody=0;fontStyle=0;strokeColor=inherit;connectable=0;fillColor=none;startSize=0;collapsible=0;recursiveResize=0;expand=0;" parent="ndoNzFzWmUu_PWySdX6u-138" vertex="1">
          <mxGeometry width="390" height="230" as="geometry">
            <mxRectangle width="390" height="230" as="alternateBounds" />
          </mxGeometry>
        </mxCell>
        <mxCell id="ndoNzFzWmUu_PWySdX6u-141" value="" style="image;aspect=fixed;perimeter=ellipsePerimeter;html=1;align=center;shadow=0;dashed=0;spacingTop=3;image=img/lib/active_directory/web_server.svg;" parent="ndoNzFzWmUu_PWySdX6u-139" vertex="1">
          <mxGeometry x="280" y="50" width="104" height="130" as="geometry" />
        </mxCell>
        <mxCell id="ndoNzFzWmUu_PWySdX6u-145" value="&lt;font style=&quot;font-size: 18px;&quot;&gt;&lt;b style=&quot;&quot;&gt;Nginx&lt;br&gt;Web Server&lt;br&gt;&lt;/b&gt;&lt;/font&gt;" style="text;strokeColor=none;align=center;fillColor=none;html=1;verticalAlign=middle;whiteSpace=wrap;rounded=0;" parent="ndoNzFzWmUu_PWySdX6u-139" vertex="1">
          <mxGeometry x="247" y="189.99999999999994" width="170" height="30" as="geometry" />
        </mxCell>
        <mxCell id="ndoNzFzWmUu_PWySdX6u-212" value="" style="html=1;shadow=0;dashed=0;align=center;verticalAlign=middle;shape=mxgraph.arrows2.twoWayArrow;dy=0.47;dx=26.02;rotation=0;" parent="ndoNzFzWmUu_PWySdX6u-139" vertex="1">
          <mxGeometry x="110" y="110" width="160" height="30" as="geometry" />
        </mxCell>
        <mxCell id="ndoNzFzWmUu_PWySdX6u-140" value="" style="image;aspect=fixed;html=1;points=[];align=center;fontSize=12;image=img/lib/azure2/general/Files.svg;" parent="ndoNzFzWmUu_PWySdX6u-139" vertex="1">
          <mxGeometry x="10" y="75.84000000000003" width="89.89" height="98.32" as="geometry" />
        </mxCell>
        <mxCell id="ndoNzFzWmUu_PWySdX6u-144" value="&lt;font style=&quot;font-size: 18px;&quot;&gt;&lt;b style=&quot;&quot;&gt;Code Base&lt;/b&gt;&lt;/font&gt;" style="text;strokeColor=none;align=center;fillColor=none;html=1;verticalAlign=middle;whiteSpace=wrap;rounded=0;" parent="ndoNzFzWmUu_PWySdX6u-139" vertex="1">
          <mxGeometry x="-17.700000000000045" y="174.15999999999997" width="145.29" height="30" as="geometry" />
        </mxCell>
        <mxCell id="ndoNzFzWmUu_PWySdX6u-263" value="" style="fontColor=#0066CC;verticalAlign=top;verticalLabelPosition=bottom;labelPosition=center;align=center;html=1;outlineConnect=0;fillColor=#CCCCCC;strokeColor=#6881B3;gradientColor=none;gradientDirection=north;strokeWidth=2;shape=mxgraph.networks.firewall;" parent="1" vertex="1">
          <mxGeometry x="855.3899999999998" y="720" width="63.13" height="57" as="geometry" />
        </mxCell>
        <mxCell id="ndoNzFzWmUu_PWySdX6u-274" value="" style="image;html=1;image=img/lib/clip_art/computers/Server_Rack_128x128.png;noLabel=0;portConstraintRotation=0;connectable=1;allowArrows=1;fixDash=0;" parent="1" vertex="1">
          <mxGeometry x="686.87" y="670" width="96.26" height="120" as="geometry" />
        </mxCell>
        <mxCell id="ndoNzFzWmUu_PWySdX6u-279" value="" style="image;aspect=fixed;perimeter=ellipsePerimeter;html=1;align=center;shadow=0;dashed=0;fontColor=#4277BB;labelBackgroundColor=default;fontSize=12;spacingTop=3;image=img/lib/ibm/infrastructure/monitoring.svg;" parent="1" vertex="1">
          <mxGeometry x="1230.87" y="540" width="60" height="60" as="geometry" />
        </mxCell>
        <mxCell id="ndoNzFzWmUu_PWySdX6u-284" style="edgeStyle=orthogonalEdgeStyle;rounded=0;orthogonalLoop=1;jettySize=auto;html=1;entryX=1;entryY=0.5;entryDx=0;entryDy=0;" parent="1" source="ndoNzFzWmUu_PWySdX6u-280" target="ndoNzFzWmUu_PWySdX6u-283" edge="1">
          <mxGeometry relative="1" as="geometry">
            <Array as="points">
              <mxPoint x="520" y="750" />
              <mxPoint x="520" y="1340" />
              <mxPoint x="1674" y="1340" />
              <mxPoint x="1674" y="481" />
            </Array>
          </mxGeometry>
        </mxCell>
        <mxCell id="ndoNzFzWmUu_PWySdX6u-280" value="" style="image;aspect=fixed;perimeter=ellipsePerimeter;html=1;align=center;shadow=0;dashed=0;fontColor=#4277BB;labelBackgroundColor=default;fontSize=12;spacingTop=3;image=img/lib/ibm/infrastructure/monitoring.svg;" parent="1" vertex="1">
          <mxGeometry x="550" y="720" width="60" height="60" as="geometry" />
        </mxCell>
        <mxCell id="ndoNzFzWmUu_PWySdX6u-283" value="" style="editableCssRules=.*;html=1;shape=image;verticalLabelPosition=bottom;labelBackgroundColor=#ffffff;verticalAlign=top;aspect=fixed;imageAspect=0;image=data:image/svg+xml,PHN2ZyB4bWxucz0iaHR0cDovL3d3dy53My5vcmcvMjAwMC9zdmciIHhtbG5zOnY9Imh0dHBzOi8vdmVjdGEuaW8vbmFubyIgd2lkdGg9IjIwIiBoZWlnaHQ9IjEzLjUyOTk5OTczMjk3MTE5MSIgdmlld0JveD0iLTIuOTMyMDk3ODk3ODEyMDE0ZS05IC01LjI1ODAxNTA0MTgzNzk1NmUtMTUgMjAgMTMuNTI5OTk5NzMyOTcxMTkxIj4mI3hhOwk8c3R5bGUgdHlwZT0idGV4dC9jc3MiPiYjeGE7CS5zdDB7ZmlsbDojNDI4NWY0O30mI3hhOwkuc3Qxe2ZpbGw6IzY2OWRmNjt9JiN4YTsJPC9zdHlsZT4mI3hhOwk8cGF0aCBjbGFzcz0ic3QxIiBkPSJNOC44MyAxMC41OGgyLjMzdjIuNjRIOC44M3oiLz4mI3hhOwk8cGF0aCBjbGFzcz0ic3QwIiBkPSJNMTYuNDggOC42MWEuNTYuNTYgMCAwIDEtLjQtLjE3TDEyIDQuMjEgOS4yNiA3LjFhLjU3LjU3IDAgMCAxLS43Ni4wNUw2LjQyIDUuNDdsLTIuMiAyLjkyYS41Ni41NiAwIDAgMS0uNDUuMjJIMHYxLjcxYS43NS43NSAwIDAgMCAuNzQuNzVoMTguNTJhLjc1Ljc1IDAgMCAwIC43NC0uNzVWOC42MXoiLz4mI3hhOwk8cGF0aCBjbGFzcz0ic3QxIiBkPSJNMy41IDcuNWwyLjM4LTMuMTZhLjU1LjU1IDAgMCAxIC4zNy0uMjIuNjMuNjMgMCAwIDEgLjQyLjEybDIuMTIgMS43MiAyLjgtMi45NGEuNTQuNTQgMCAwIDEgLjQtLjE3aDBhLjU0LjU0IDAgMCAxIC40LjE3bDQuMzMgNC40OEgyMFYuNzRhLjc0Ljc0IDAgMCAwLS43NC0uNzRILjc0QS43NC43NCAwIDAgMCAwIC43NHY2LjgxeiIvPiYjeGE7CTxyZWN0IGNsYXNzPSJzdDAiIHg9IjYuNjciIHk9IjEyLjkyIiB3aWR0aD0iNi42NyIgaGVpZ2h0PSIuNjEiIHJ4PSIuMyIvPiYjeGE7PC9zdmc+;" parent="1" vertex="1">
          <mxGeometry x="1507.13" y="430" width="146.43" height="102.5" as="geometry" />
        </mxCell>
        <mxCell id="ndoNzFzWmUu_PWySdX6u-286" style="edgeStyle=orthogonalEdgeStyle;rounded=0;orthogonalLoop=1;jettySize=auto;html=1;exitX=1;exitY=0.5;exitDx=0;exitDy=0;entryX=-0.001;entryY=0.429;entryDx=0;entryDy=0;entryPerimeter=0;" parent="1" source="ndoNzFzWmUu_PWySdX6u-279" target="ndoNzFzWmUu_PWySdX6u-283" edge="1">
          <mxGeometry relative="1" as="geometry" />
        </mxCell>
        <mxCell id="ndoNzFzWmUu_PWySdX6u-287" style="edgeStyle=orthogonalEdgeStyle;rounded=0;orthogonalLoop=1;jettySize=auto;html=1;exitX=0.5;exitY=0;exitDx=0;exitDy=0;entryX=0.5;entryY=1;entryDx=0;entryDy=0;" parent="1" source="ndoNzFzWmUu_PWySdX6u-281" target="ndoNzFzWmUu_PWySdX6u-283" edge="1">
          <mxGeometry relative="1" as="geometry" />
        </mxCell>
        <mxCell id="ndoNzFzWmUu_PWySdX6u-289" value="" style="shape=table;startSize=0;container=1;collapsible=0;childLayout=tableLayout;" parent="1" vertex="1">
          <mxGeometry x="1520" y="390" width="120" height="30" as="geometry" />
        </mxCell>
        <mxCell id="ndoNzFzWmUu_PWySdX6u-290" value="" style="shape=tableRow;horizontal=0;startSize=0;swimlaneHead=0;swimlaneBody=0;strokeColor=inherit;top=0;left=0;bottom=0;right=0;collapsible=0;dropTarget=0;fillColor=none;points=[[0,0.5],[1,0.5]];portConstraint=eastwest;" parent="ndoNzFzWmUu_PWySdX6u-289" vertex="1">
          <mxGeometry width="120" height="30" as="geometry" />
        </mxCell>
        <mxCell id="ndoNzFzWmUu_PWySdX6u-291" value="" style="shape=partialRectangle;html=1;whiteSpace=wrap;connectable=0;strokeColor=inherit;overflow=hidden;fillColor=none;top=0;left=0;bottom=0;right=0;pointerEvents=1;" parent="ndoNzFzWmUu_PWySdX6u-290" vertex="1">
          <mxGeometry width="120" height="30" as="geometry">
            <mxRectangle width="120" height="30" as="alternateBounds" />
          </mxGeometry>
        </mxCell>
        <mxCell id="ndoNzFzWmUu_PWySdX6u-292" value="&lt;font style=&quot;font-size: 18px;&quot;&gt;&lt;b&gt;sumo logic&lt;/b&gt;&lt;/font&gt;" style="text;strokeColor=none;align=center;fillColor=none;html=1;verticalAlign=middle;whiteSpace=wrap;rounded=0;" parent="1" vertex="1">
          <mxGeometry x="1525" y="390" width="110" height="30" as="geometry" />
        </mxCell>
        <mxCell id="ndoNzFzWmUu_PWySdX6u-293" value="" style="shape=table;childLayout=tableLayout;startSize=0;fillColor=none;collapsible=0;recursiveResize=0;expand=0;strokeWidth=3;" parent="1" vertex="1">
          <mxGeometry x="920" y="1080" width="390" height="190" as="geometry" />
        </mxCell>
        <mxCell id="ndoNzFzWmUu_PWySdX6u-294" value="" style="shape=tableRow;horizontal=0;swimlaneHead=0;swimlaneBody=0;top=0;left=0;strokeColor=inherit;bottom=0;right=0;dropTarget=0;fontStyle=0;fillColor=none;points=[[0,0.5],[1,0.5]];portConstraint=eastwest;startSize=0;collapsible=0;recursiveResize=0;expand=0;" parent="ndoNzFzWmUu_PWySdX6u-293" vertex="1">
          <mxGeometry width="390" height="190" as="geometry" />
        </mxCell>
        <mxCell id="ndoNzFzWmUu_PWySdX6u-295" value="" style="swimlane;swimlaneHead=0;swimlaneBody=0;fontStyle=0;strokeColor=inherit;connectable=0;fillColor=none;startSize=0;collapsible=0;recursiveResize=0;expand=0;" parent="ndoNzFzWmUu_PWySdX6u-294" vertex="1">
          <mxGeometry width="390" height="190" as="geometry">
            <mxRectangle width="390" height="190" as="alternateBounds" />
          </mxGeometry>
        </mxCell>
        <mxCell id="ndoNzFzWmUu_PWySdX6u-296" value="" style="image;aspect=fixed;html=1;points=[];align=center;fontSize=12;image=img/lib/azure2/general/Files.svg;" parent="ndoNzFzWmUu_PWySdX6u-295" vertex="1">
          <mxGeometry x="10" y="38.18000000000001" width="89.89" height="98.32" as="geometry" />
        </mxCell>
        <mxCell id="ndoNzFzWmUu_PWySdX6u-299" value="" style="image;html=1;image=img/lib/clip_art/computers/Database_128x128.png" parent="ndoNzFzWmUu_PWySdX6u-295" vertex="1">
          <mxGeometry x="280" y="34.09" width="80" height="106.5" as="geometry" />
        </mxCell>
        <mxCell id="ndoNzFzWmUu_PWySdX6u-300" value="&lt;font style=&quot;font-size: 18px;&quot;&gt;&lt;b style=&quot;&quot;&gt;Code Base&lt;/b&gt;&lt;/font&gt;" style="text;strokeColor=none;align=center;fillColor=none;html=1;verticalAlign=middle;whiteSpace=wrap;rounded=0;" parent="ndoNzFzWmUu_PWySdX6u-295" vertex="1">
          <mxGeometry x="-9.999999999999991" y="140.58999999999995" width="145.29" height="30" as="geometry" />
        </mxCell>
        <mxCell id="ndoNzFzWmUu_PWySdX6u-304" value="&lt;b&gt;&lt;font style=&quot;font-size: 18px;&quot;&gt;MySQL&lt;br&gt;Database&lt;/font&gt;&lt;/b&gt;" style="text;strokeColor=none;align=center;fillColor=none;html=1;verticalAlign=middle;whiteSpace=wrap;rounded=0;" parent="ndoNzFzWmUu_PWySdX6u-295" vertex="1">
          <mxGeometry x="241" y="130" width="160" height="60" as="geometry" />
        </mxCell>
        <mxCell id="ndoNzFzWmUu_PWySdX6u-308" value="" style="html=1;shadow=0;dashed=0;align=center;verticalAlign=middle;shape=mxgraph.arrows2.twoWayArrow;dy=0.47;dx=26.02;" parent="ndoNzFzWmUu_PWySdX6u-295" vertex="1">
          <mxGeometry x="117.05" y="72.34" width="155.91" height="30" as="geometry" />
        </mxCell>
        <mxCell id="ndoNzFzWmUu_PWySdX6u-309" value="" style="outlineConnect=0;dashed=0;verticalLabelPosition=bottom;verticalAlign=top;align=center;html=1;shape=mxgraph.aws3.classic_load_balancer;fillColor=#F58536;gradientColor=none;" parent="1" vertex="1">
          <mxGeometry x="1136" y="585" width="70.18" height="72.75" as="geometry" />
        </mxCell>
        <mxCell id="ndoNzFzWmUu_PWySdX6u-310" value="&lt;font style=&quot;font-size: 18px;&quot;&gt;&lt;b&gt;HAproxy&lt;br&gt;Load Balancer&lt;/b&gt;&lt;/font&gt;" style="text;strokeColor=none;align=center;fillColor=none;html=1;verticalAlign=middle;whiteSpace=wrap;rounded=0;" parent="1" vertex="1">
          <mxGeometry x="1096.87" y="660" width="150" height="30" as="geometry" />
        </mxCell>
        <mxCell id="ndoNzFzWmUu_PWySdX6u-231" value="" style="shape=table;childLayout=tableLayout;startSize=0;fillColor=none;collapsible=0;recursiveResize=0;expand=0;strokeWidth=3;" parent="1" vertex="1">
          <mxGeometry x="1270" y="760" width="390" height="230" as="geometry" />
        </mxCell>
        <mxCell id="ndoNzFzWmUu_PWySdX6u-232" value="" style="shape=tableRow;horizontal=0;swimlaneHead=0;swimlaneBody=0;top=0;left=0;strokeColor=inherit;bottom=0;right=0;dropTarget=0;fontStyle=0;fillColor=none;points=[[0,0.5],[1,0.5]];portConstraint=eastwest;startSize=0;collapsible=0;recursiveResize=0;expand=0;" parent="ndoNzFzWmUu_PWySdX6u-231" vertex="1">
          <mxGeometry width="390" height="230" as="geometry" />
        </mxCell>
        <mxCell id="ndoNzFzWmUu_PWySdX6u-233" value="" style="swimlane;swimlaneHead=0;swimlaneBody=0;fontStyle=0;strokeColor=inherit;connectable=0;fillColor=none;startSize=0;collapsible=0;recursiveResize=0;expand=0;" parent="ndoNzFzWmUu_PWySdX6u-232" vertex="1">
          <mxGeometry width="390" height="230" as="geometry">
            <mxRectangle width="390" height="230" as="alternateBounds" />
          </mxGeometry>
        </mxCell>
        <mxCell id="ndoNzFzWmUu_PWySdX6u-234" value="" style="image;aspect=fixed;html=1;points=[];align=center;fontSize=12;image=img/lib/azure2/general/Files.svg;" parent="ndoNzFzWmUu_PWySdX6u-233" vertex="1">
          <mxGeometry x="279.02" y="60.84" width="89.89" height="98.32" as="geometry" />
        </mxCell>
        <mxCell id="ndoNzFzWmUu_PWySdX6u-236" value="" style="sketch=0;pointerEvents=1;shadow=0;dashed=0;html=1;strokeColor=none;fillColor=#505050;labelPosition=center;verticalLabelPosition=bottom;verticalAlign=top;outlineConnect=0;align=center;shape=mxgraph.office.servers.application_server;" parent="ndoNzFzWmUu_PWySdX6u-233" vertex="1">
          <mxGeometry x="15.999999999999972" y="50" width="90" height="120" as="geometry" />
        </mxCell>
        <mxCell id="ndoNzFzWmUu_PWySdX6u-238" value="&lt;font style=&quot;font-size: 18px;&quot;&gt;&lt;b style=&quot;&quot;&gt;Code Base&lt;/b&gt;&lt;/font&gt;" style="text;strokeColor=none;align=center;fillColor=none;html=1;verticalAlign=middle;whiteSpace=wrap;rounded=0;" parent="ndoNzFzWmUu_PWySdX6u-233" vertex="1">
          <mxGeometry x="255.69" y="159.1599999999999" width="145.29" height="30" as="geometry" />
        </mxCell>
        <mxCell id="ndoNzFzWmUu_PWySdX6u-241" value="&lt;font style=&quot;font-size: 18px;&quot;&gt;&lt;b style=&quot;&quot;&gt;Application Server&lt;/b&gt;&lt;/font&gt;" style="text;strokeColor=none;align=center;fillColor=none;html=1;verticalAlign=middle;whiteSpace=wrap;rounded=0;" parent="ndoNzFzWmUu_PWySdX6u-233" vertex="1">
          <mxGeometry x="31" y="180" width="60" height="30" as="geometry" />
        </mxCell>
        <mxCell id="ndoNzFzWmUu_PWySdX6u-246" value="" style="html=1;shadow=0;dashed=0;align=center;verticalAlign=middle;shape=mxgraph.arrows2.twoWayArrow;dy=0.47;dx=26.02;" parent="ndoNzFzWmUu_PWySdX6u-233" vertex="1">
          <mxGeometry x="110" y="100" width="160" height="30" as="geometry" />
        </mxCell>
        <mxCell id="ndoNzFzWmUu_PWySdX6u-281" value="" style="image;aspect=fixed;perimeter=ellipsePerimeter;html=1;align=center;shadow=0;dashed=0;fontColor=#4277BB;labelBackgroundColor=default;fontSize=12;spacingTop=3;image=img/lib/ibm/infrastructure/monitoring.svg;" parent="ndoNzFzWmUu_PWySdX6u-233" vertex="1">
          <mxGeometry x="326" y="-40" width="60" height="60" as="geometry" />
        </mxCell>
        <mxCell id="ndoNzFzWmUu_PWySdX6u-312" value="" style="image;html=1;image=img/lib/clip_art/computers/Server_Rack_128x128.png;noLabel=0;portConstraintRotation=0;connectable=1;allowArrows=1;fixDash=0;" parent="1" vertex="1">
          <mxGeometry x="1423.74" y="670" width="96.26" height="120" as="geometry" />
        </mxCell>
        <mxCell id="ndoNzFzWmUu_PWySdX6u-317" style="edgeStyle=orthogonalEdgeStyle;rounded=0;orthogonalLoop=1;jettySize=auto;html=1;entryX=1;entryY=0.25;entryDx=0;entryDy=0;" parent="1" source="ndoNzFzWmUu_PWySdX6u-314" target="ndoNzFzWmUu_PWySdX6u-283" edge="1">
          <mxGeometry relative="1" as="geometry">
            <Array as="points">
              <mxPoint x="1115" y="1320" />
              <mxPoint x="1690" y="1320" />
              <mxPoint x="1690" y="456" />
            </Array>
          </mxGeometry>
        </mxCell>
        <mxCell id="ndoNzFzWmUu_PWySdX6u-314" value="" style="image;aspect=fixed;perimeter=ellipsePerimeter;html=1;align=center;shadow=0;dashed=0;fontColor=#4277BB;labelBackgroundColor=default;fontSize=12;spacingTop=3;image=img/lib/ibm/infrastructure/monitoring.svg;" parent="1" vertex="1">
          <mxGeometry x="1085" y="1250" width="60" height="60" as="geometry" />
        </mxCell>
        <mxCell id="ndoNzFzWmUu_PWySdX6u-315" value="" style="fontColor=#0066CC;verticalAlign=top;verticalLabelPosition=bottom;labelPosition=center;align=center;html=1;outlineConnect=0;fillColor=#CCCCCC;strokeColor=#6881B3;gradientColor=none;gradientDirection=north;strokeWidth=2;shape=mxgraph.networks.firewall;" parent="1" vertex="1">
          <mxGeometry x="1280" y="720" width="63.13" height="57" as="geometry" />
        </mxCell>
        <mxCell id="ndoNzFzWmUu_PWySdX6u-318" value="" style="image;html=1;image=img/lib/clip_art/computers/Server_Rack_128x128.png;noLabel=0;portConstraintRotation=0;connectable=1;allowArrows=1;fixDash=0;" parent="1" vertex="1">
          <mxGeometry x="1079.1" y="1010" width="81.41" height="100" as="geometry" />
        </mxCell>
        <mxCell id="ndoNzFzWmUu_PWySdX6u-319" value="" style="html=1;shadow=0;dashed=0;align=center;verticalAlign=middle;shape=mxgraph.arrows2.bendDoubleArrow;dy=7;dx=20.87;arrowHead=32;rounded=1;" parent="1" vertex="1">
          <mxGeometry x="960" y="740" width="310" height="290" as="geometry" />
        </mxCell>
        <mxCell id="ndoNzFzWmUu_PWySdX6u-311" value="" style="fontColor=#0066CC;verticalAlign=top;verticalLabelPosition=bottom;labelPosition=center;align=center;html=1;outlineConnect=0;fillColor=#CCCCCC;strokeColor=#6881B3;gradientColor=none;gradientDirection=north;strokeWidth=2;shape=mxgraph.networks.firewall;" parent="1" vertex="1">
          <mxGeometry x="930" y="1040" width="63.13" height="57" as="geometry" />
        </mxCell>
        <mxCell id="ndoNzFzWmUu_PWySdX6u-320" value="" style="html=1;shadow=0;dashed=0;align=center;verticalAlign=middle;shape=mxgraph.arrows2.bendDoubleArrow;dy=6.5;dx=16.89;arrowHead=27;rounded=1;direction=south;" parent="1" vertex="1">
          <mxGeometry x="920" y="730" width="40" height="300" as="geometry" />
        </mxCell>
      </root>
    </mxGraphModel>
  </diagram>
</mxfile>
